<?xml version="1.0" encoding="UTF-8" standalone="no"?>
<svg
   id="Layer_2"
   data-name="Layer 2"
   viewBox="0 0 147.89 308.54331"
   version="1.1"
   sodipodi:docname="EMF Kitchen Logo short.svg"
   width="147.89"
   height="308.5433"
   inkscape:version="1.2.1 (9c6d41e410, 2022-07-14)"
   xmlns:inkscape="http://www.inkscape.org/namespaces/inkscape"
   xmlns:sodipodi="http://sodipodi.sourceforge.net/DTD/sodipodi-0.dtd"
   xmlns="http://www.w3.org/2000/svg"
   xmlns:svg="http://www.w3.org/2000/svg">
  <sodipodi:namedview
     id="namedview192"
     pagecolor="#ffffff"
     bordercolor="#000000"
     borderopacity="0.25"
     inkscape:showpageshadow="2"
     inkscape:pageopacity="0.0"
     inkscape:pagecheckerboard="0"
     inkscape:deskcolor="#d1d1d1"
     showgrid="false"
     inkscape:zoom="4.4576234"
     inkscape:cx="70.889793"
     inkscape:cy="148.9583"
     inkscape:window-width="3840"
     inkscape:window-height="2066"
     inkscape:window-x="-11"
     inkscape:window-y="-11"
     inkscape:window-maximized="1"
     inkscape:current-layer="Layer_2" />
  <defs
     id="defs165">
    <style
       id="style163">
      .cls-1 {
        fill: #fff;
      }

      .cls-2 {
        fill: #c49a6c;
      }

      .cls-3 {
        fill: #982d2d;
      }

      .cls-4 {
        fill: #ffc50f;
      }

      .cls-5 {
        fill: #121617;
      }
    </style>
  </defs>
  <ellipse
     style="fill:#ffffff;stroke-width:4.29943"
     id="path512"
     ry="70.194145"
     rx="70.383575"
     cy="154.54265"
     cx="73.945" />
  <path
     class="cls-1"
     d="m 96.62,194.93665 c -7.07,9.12 -24.19,11.69 -33.94,5.1 -4.55,-3.08 -5.95,-8.2 -6.32,-11.96 -0.74,-7.51 1.98,-16.04 6.62,-20.75 4.73,-4.8 12.58,-8.08 18.99,-8.08 0.62,0 1.23,0.03 1.82,0.09 1.32,0.14 2.93,0.51 4.26,1.37 -0.22,0.3 -0.36,0.67 -0.36,1.07 0,0.99 0.81,1.79 1.79,1.79 0.32,0 0.61,-0.09 0.87,-0.23 0.03,0.05 0.05,0.09 0.08,0.14 -0.19,0.18 -0.32,0.44 -0.32,0.73 0,0.54 0.41,0.99 0.92,0.99 0.08,0 0.15,-0.03 0.23,-0.05 1.24,2.86 1.21,5.09 1.18,7.76 -0.02,1.73 -0.05,3.51 0.27,5.68 0.38,2.62 2.21,4.29 3.81,5.76 2.82,2.59 4.86,4.46 0.1,10.6 z"
     id="path167"
     style="stroke:none;stroke-width:2;stroke-dasharray:none;stroke-opacity:1" />
  <path
     class="cls-5"
     d="M 80.73,82.606647 V 2 H 67.65 V 82.606647 C 30.85,85.766647 2,116.48665 2,154.08665 c 0,37.6 28.85,68.69 65.65,71.85 v 80.60665 h 13.08 v -80.60665 c 35.94,-2.97 65.16,-34.44 65.16,-71.85 0,-37.41 -29.22,-68.500003 -65.71,-71.480003 M 74.04,214.21665 c -32.58,0 -59.39,-27.74 -59.39,-60.13 0,-32.39 26.81,-59.760003 59.39,-59.760003 32.58,0 58.83,27.360003 58.83,59.760003 0,32.4 -26.62,60.13 -58.83,60.13"
     id="path169"
     style="stroke:#ffffff;stroke-width:4;stroke-dasharray:none;stroke-opacity:1;paint-order:stroke fill markers"
     sodipodi:nodetypes="ccccsccccsccsssc" />
  <circle
     class="cls-4"
     cx="71.470001"
     cy="184.96663"
     r="11.19"
     id="circle171"
     style="stroke:none;stroke-width:2;stroke-dasharray:none;stroke-opacity:1" />
  <ellipse
     class="cls-1"
     cx="91.040001"
     cy="164.20663"
     rx="0.41999999"
     ry="0.49000001"
     id="ellipse174"
     style="stroke:none;stroke-width:2;stroke-dasharray:none;stroke-opacity:1" />
  <path
     class="cls-3"
     d="m 51.67,131.51665 c 6.08,-1.08 10.64,-0.08 14.66,0.81 5.55,1.23 9.94,2.2 16.7,-2.81 5.11,-3.79 6.85,-11.85 7.3,-14.56 l -3.54,-0.84 c -2.39,9.63 -5.63,13.21 -9.81,14.76 -6.99,2.59 -20.01,-3.1 -29.61,0.46 -8.91,3.3 -13.97,12.13 -15.25,28.49 l 1.08,0.25 c 0.75,-3.52 5.68,-24.29 18.49,-26.57 z"
     id="path176"
     style="stroke:none;stroke-width:2;stroke-dasharray:none;stroke-opacity:1" />
  <path
     class="cls-3"
     d="m 93.25,115.66665 c -0.55,3.26 -2.53,11.89 -8.44,16.27 -7.85,5.82 -13.33,4.61 -19.13,3.33 -3.93,-0.87 -7.99,-1.77 -13.49,-0.79 -10.85,1.93 -15.46,21.38 -16.09,24.29 l 11.19,2.58 c 2.5,-8.27 5.28,-13.08 9.85,-14.54 5.46,-2.02 17.83,4.07 28.14,0.24 10.65,-3.95 14.6,-14.15 16.51,-29.36 l -8.55,-2.03 z"
     id="path178"
     style="stroke:none;stroke-width:2;stroke-dasharray:none;stroke-opacity:1" />
  <path
     class="cls-1"
     d="m 52.19,134.47665 c 5.5,-0.98 9.56,-0.08 13.49,0.79 5.8,1.28 11.28,2.49 19.13,-3.33 5.91,-4.38 7.89,-13.01 8.44,-16.27 l -2.93,-0.69 c -0.45,2.71 -2.18,10.77 -7.3,14.56 -6.76,5.01 -11.14,4.04 -16.7,2.81 -4.02,-0.89 -8.58,-1.9 -14.66,-0.81 -12.8,2.28 -17.74,23.05 -18.49,26.57 l 2.93,0.67 c 0.63,-2.91 5.23,-22.36 16.09,-24.29 z"
     id="path180"
     style="stroke:none;stroke-width:2;stroke-dasharray:none;stroke-opacity:1" />
  <path
     class="cls-2"
     d="m 97.87,182.86665 c -1.49,-1.37 -2.91,-2.67 -3.19,-4.58 -0.29,-2 -0.27,-3.71 -0.25,-5.36 0.05,-3.49 0.09,-6.78 -2.95,-11.59 -1.42,-2.24 -4.01,-3.62 -7.48,-3.99 -7.21,-0.78 -16.87,2.91 -22.44,8.57 -5.03,5.1 -7.99,14.3 -7.19,22.35 0.59,5.91 3.14,10.68 7.19,13.42 4.1,2.77 9.28,4.09 14.56,4.09 8.52,0 17.27,-3.42 22.08,-9.62 5.88,-7.59 2.58,-10.62 -0.33,-13.29 z m -8.39,-21.92 c 0.46,0 0.83,0.37 0.83,0.83 0,0.46 -0.37,0.83 -0.83,0.83 -0.46,0 -0.83,-0.37 -0.83,-0.83 0,-0.46 0.37,-0.83 0.83,-0.83 z m 7.14,33.99 c -7.07,9.12 -24.19,11.69 -33.94,5.1 -4.55,-3.08 -5.95,-8.2 -6.32,-11.96 -0.74,-7.51 1.98,-16.04 6.62,-20.75 4.73,-4.8 12.58,-8.08 18.99,-8.08 0.62,0 1.23,0.03 1.82,0.09 1.32,0.14 2.93,0.51 4.26,1.37 -0.22,0.3 -0.36,0.67 -0.36,1.07 0,0.99 0.81,1.79 1.79,1.79 0.32,0 0.61,-0.09 0.87,-0.23 0.03,0.05 0.05,0.09 0.08,0.14 -0.19,0.18 -0.32,0.44 -0.32,0.73 0,0.54 0.41,0.99 0.92,0.99 0.08,0 0.15,-0.03 0.23,-0.05 1.24,2.86 1.21,5.09 1.18,7.76 -0.02,1.73 -0.05,3.51 0.27,5.68 0.38,2.62 2.21,4.29 3.81,5.76 2.82,2.59 4.86,4.46 0.1,10.6 z"
     id="path184"
     style="stroke:none;stroke-width:2;stroke-dasharray:none;stroke-opacity:1" />
</svg>
